<svg xmlns="http://www.w3.org/2000/svg" viewBox="0 0 24 24"><path fill="currentColor" d="M19.14 12.94a7.43 7.43 0 000-1.88l2.11-1.65a.5.5 0 00.12-.64l-2-3.46a.5.5 0 00-.6-.22l-2.49 1a7.06 7.06 0 00-1.63-.95l-.38-2.65a.5.5 0 00-.5-.42h-4a.5.5 0 00-.5.42l-.38 2.65a7.06 7.06 0 00-1.63.95l-2.49-1a.5.5 0 00-.6.22l-2 3.46a.5.5 0 00.12.64l2.11 1.65a7.43 7.43 0 000 1.88L2.98 14.6a.5.5 0 00-.12.64l2 3.46a.5.5 0 00.6.22l2.49-1c.5.38 1.05.7 1.63.95l.38 2.65a.5.5 0 00.5.42h4a.5.5 0 00.5-.42l.38-2.65c.58-.25 1.13-.57 1.63-.95l2.49 1a.5.5 0 00.6-.22l2-3.46a.5.5 0 00-.12-.64l-2.11-1.66zM12 15.5A3.5 3.5 0 1115.5 12 3.5 3.5 0 0112 15.5z"/></svg>