<svg xmlns="http://www.w3.org/2000/svg" width="920" height="420">
<rect width="100%" height="100%" fill="#0B1220"/>
<rect x="20" y="20" width="220" height="80" rx="8" fill="#0B1220" stroke="#1F2937" />
<text x="32" y="48" font-family="Arial, Helvetica, sans-serif" font-size="16" fill="#E5E7EB">BG</text>
<text x="32" y="74" font-family="Arial, Helvetica, sans-serif" font-size="12" fill="#E5E7EB">#0B1220</text>
<rect x="260" y="20" width="220" height="80" rx="8" fill="#0F172A" stroke="#1F2937" />
<text x="272" y="48" font-family="Arial, Helvetica, sans-serif" font-size="16" fill="#E5E7EB">Surface-1</text>
<text x="272" y="74" font-family="Arial, Helvetica, sans-serif" font-size="12" fill="#E5E7EB">#0F172A</text>
<rect x="500" y="20" width="220" height="80" rx="8" fill="#111827" stroke="#1F2937" />
<text x="512" y="48" font-family="Arial, Helvetica, sans-serif" font-size="16" fill="#E5E7EB">Surface-2</text>
<text x="512" y="74" font-family="Arial, Helvetica, sans-serif" font-size="12" fill="#E5E7EB">#111827</text>
<rect x="740" y="20" width="220" height="80" rx="8" fill="#1F2937" stroke="#1F2937" />
<text x="752" y="48" font-family="Arial, Helvetica, sans-serif" font-size="16" fill="#E5E7EB">Border</text>
<text x="752" y="74" font-family="Arial, Helvetica, sans-serif" font-size="12" fill="#E5E7EB">#1F2937</text>
<rect x="20" y="120" width="220" height="80" rx="8" fill="#E5E7EB" stroke="#1F2937" />
<text x="32" y="148" font-family="Arial, Helvetica, sans-serif" font-size="16" fill="#E5E7EB">Text-1</text>
<text x="32" y="174" font-family="Arial, Helvetica, sans-serif" font-size="12" fill="#E5E7EB">#E5E7EB</text>
<rect x="260" y="120" width="220" height="80" rx="8" fill="#94A3B8" stroke="#1F2937" />
<text x="272" y="148" font-family="Arial, Helvetica, sans-serif" font-size="16" fill="#E5E7EB">Text-2</text>
<text x="272" y="174" font-family="Arial, Helvetica, sans-serif" font-size="12" fill="#E5E7EB">#94A3B8</text>
<rect x="500" y="120" width="220" height="80" rx="8" fill="#34D399" stroke="#1F2937" />
<text x="512" y="148" font-family="Arial, Helvetica, sans-serif" font-size="16" fill="#E5E7EB">Success</text>
<text x="512" y="174" font-family="Arial, Helvetica, sans-serif" font-size="12" fill="#E5E7EB">#34D399</text>
<rect x="740" y="120" width="220" height="80" rx="8" fill="#60A5FA" stroke="#1F2937" />
<text x="752" y="148" font-family="Arial, Helvetica, sans-serif" font-size="16" fill="#E5E7EB">Info</text>
<text x="752" y="174" font-family="Arial, Helvetica, sans-serif" font-size="12" fill="#E5E7EB">#60A5FA</text>
<rect x="20" y="220" width="220" height="80" rx="8" fill="#FBBF24" stroke="#1F2937" />
<text x="32" y="248" font-family="Arial, Helvetica, sans-serif" font-size="16" fill="#E5E7EB">Warning</text>
<text x="32" y="274" font-family="Arial, Helvetica, sans-serif" font-size="12" fill="#E5E7EB">#FBBF24</text>
<rect x="260" y="220" width="220" height="80" rx="8" fill="#F87171" stroke="#1F2937" />
<text x="272" y="248" font-family="Arial, Helvetica, sans-serif" font-size="16" fill="#E5E7EB">Danger</text>
<text x="272" y="274" font-family="Arial, Helvetica, sans-serif" font-size="12" fill="#E5E7EB">#F87171</text>
<rect x="500" y="220" width="220" height="80" rx="8" fill="#3B82F6" stroke="#1F2937" />
<text x="512" y="248" font-family="Arial, Helvetica, sans-serif" font-size="16" fill="#E5E7EB">Sigma Zero</text>
<text x="512" y="274" font-family="Arial, Helvetica, sans-serif" font-size="12" fill="#E5E7EB">#3B82F6</text>
<rect x="740" y="220" width="220" height="80" rx="8" fill="#F97316" stroke="#1F2937" />
<text x="752" y="248" font-family="Arial, Helvetica, sans-serif" font-size="16" fill="#E5E7EB">Sigma Swing</text>
<text x="752" y="274" font-family="Arial, Helvetica, sans-serif" font-size="12" fill="#E5E7EB">#F97316</text>
<rect x="20" y="320" width="220" height="80" rx="8" fill="#22C55E" stroke="#1F2937" />
<text x="32" y="348" font-family="Arial, Helvetica, sans-serif" font-size="16" fill="#E5E7EB">Sigma Long</text>
<text x="32" y="374" font-family="Arial, Helvetica, sans-serif" font-size="12" fill="#E5E7EB">#22C55E</text>
</svg>