<svg xmlns="http://www.w3.org/2000/svg" width="960" height="460" viewBox="0 0 960 460">
<style>text{font-family:Arial,Helvetica,sans-serif;font-size:14px;}</style>
<rect width="100%" height="100%" fill="#ffffff"/>
<text x="24" y="32" font-size="20" font-weight="700">Sigmatiq Sigma — Palette (Light)</text>
<text x="24" y="56" fill="#555">Preview swatches (static)</text>
<rect x="24" y="84" width="160" height="80" rx="8" ry="8" fill="#ffffff" stroke="#D0D7E2"/>
<text x="24" y="182">bg (--bg)</text>
<text x="24" y="200" fill="#666">#ffffff</text>
<rect x="208" y="84" width="160" height="80" rx="8" ry="8" fill="#ffffff" stroke="#D0D7E2"/>
<text x="208" y="182">surface (--surface)</text>
<text x="208" y="200" fill="#666">#ffffff</text>
<rect x="392" y="84" width="160" height="80" rx="8" ry="8" fill="#F8FAFC" stroke="#D0D7E2"/>
<text x="392" y="182">surface-2 (--surface-2)</text>
<text x="392" y="200" fill="#666">#F8FAFC</text>
<rect x="576" y="84" width="160" height="80" rx="8" ry="8" fill="#0A2540" stroke="#D0D7E2"/>
<text x="576" y="182">text (--text)</text>
<text x="576" y="200" fill="#666">#0A2540</text>
<rect x="760" y="84" width="160" height="80" rx="8" ry="8" fill="#4B5B78" stroke="#D0D7E2"/>
<text x="760" y="182">text-muted (--text-muted)</text>
<text x="760" y="200" fill="#666">#4B5B78</text>
<rect x="24" y="204" width="160" height="80" rx="8" ry="8" fill="#E5E7EB" stroke="#D0D7E2"/>
<text x="24" y="302">border (--border)</text>
<text x="24" y="320" fill="#666">#E5E7EB</text>
<rect x="208" y="204" width="160" height="80" rx="8" ry="8" fill="#1ABC9C" stroke="#D0D7E2"/>
<text x="208" y="302">primary (--primary)</text>
<text x="208" y="320" fill="#666">#1ABC9C</text>
<rect x="392" y="204" width="160" height="80" rx="8" ry="8" fill="#2ECC71" stroke="#D0D7E2"/>
<text x="392" y="302">accent (--accent)</text>
<text x="392" y="320" fill="#666">#2ECC71</text>
<rect x="576" y="204" width="160" height="80" rx="8" ry="8" fill="#00A3FF" stroke="#D0D7E2"/>
<text x="576" y="302">pack-accent (--pack-accent)</text>
<text x="576" y="320" fill="#666">#00A3FF</text>
<rect x="760" y="204" width="160" height="80" rx="8" ry="8" fill="#2ECC71" stroke="#D0D7E2"/>
<text x="760" y="302">success (--color-success)</text>
<text x="760" y="320" fill="#666">#2ECC71</text>
<rect x="24" y="324" width="160" height="80" rx="8" ry="8" fill="#00A3FF" stroke="#D0D7E2"/>
<text x="24" y="422">info (--color-info)</text>
<text x="24" y="440" fill="#666">#00A3FF</text>
<rect x="208" y="324" width="160" height="80" rx="8" ry="8" fill="#F59E0B" stroke="#D0D7E2"/>
<text x="208" y="422">warning (--color-warning)</text>
<text x="208" y="440" fill="#666">#F59E0B</text>
<rect x="392" y="324" width="160" height="80" rx="8" ry="8" fill="#EF4444" stroke="#D0D7E2"/>
<text x="392" y="422">danger (--color-danger)</text>
<text x="392" y="440" fill="#666">#EF4444</text>
</svg>